<svg x="0px" y="0px" width="48px" height="48px" viewBox="0 0 37.1 37.1" xmlns="http://www.w3.org/2000/svg" data-reactroot=""><path fill="rgba(0, 0, 0, 0.54)" d="M7.858,32.251l1.53,1.019H9.156l-1.673-0.834c-1.577-0.788-3.798-3.988-4.356-5.706c-0.51-1.807,1.578-3.337,2.087-4.313c0.509-0.972-1.251-4.682-1.948-5.885c-0.604-1.209,0.835-1.904,1.439-1.718c0.602,0.186,0.879,1.021,1.807,3.987c0.88,3.012-0.092,3.662-2.411,6.307C1.876,27.753,7.858,32.251,7.858,32.251z M33.915,13.839c-0.046,0.232-0.186,0.557-0.139,0.739c0,0-3.152,14.33-3.34,14.934c-0.093,0.281-0.461,0.838-0.926,1.44c-0.094,0.137-0.278,0.324-0.465,0.556c-0.323,0.372-0.649,0.787-0.879,1.02c-1.394,1.715-2.784,2.875-4.222,4.545c-1.855,0-3.707,0-5.656,0c-0.462,0-1.437,0.047-1.854,0c-0.232-0.093-0.559-0.6-0.742-0.832c-1.3-1.626-2.737-2.786-4.034-4.316l2.827-1.157l-1.111-0.929l-2.55,1.114c-0.649-0.697-1.023-0.974-1.253-1.532C9.295,28.819,6.42,14.672,6.42,14.672c0.045-0.139-0.094-0.51-0.094-0.694c-0.694-4.08,0.975-7.28,3.014-9.459c2.18-2.319,5.474-4.313,10.111-4.5c5.005-0.185,8.716,1.81,11.034,4.082C32.616,6.279,34.565,9.526,33.915,13.839z M8.969,31.74l0.975,1.066l-0.51,0.322l-1.301-1.064L8.969,31.74z M9.572,31.508l1.018,0.879l-0.229,0.188l-1.114-0.974L9.572,31.508z M28.352,14.072c-0.139-0.139-0.417-0.513-0.652-0.556c-0.507-0.095-1.249,0-1.852,0c-4.636,0-8.67,0-13.309,0c0,0-0.045,0-0.045,0.043c-0.604,0.604-1.76,1.813-1.718,2.973c0.049,0.924,0.652,1.666,1.253,2.314c0.465,0.514,1.207,1.392,2.179,1.392c0.465,0,1.021-0.323,1.395-0.554c1.201-0.791,2.318-1.813,3.706-2.181c2.041-0.512,3.57,0.882,4.685,1.666c0.556,0.423,1.39,1.114,2.176,1.068c0.839,0,1.627-0.788,2.089-1.298c0.652-0.65,1.11-1.296,1.253-2.134C29.697,15.74,28.91,14.721,28.352,14.072z M12.956,16.531c0,0,3.989,0.045,4.545,0.692c-1.159,0.324-2.272,0.605-2.272,0.605l-2.037-0.652L12.956,16.531z M26.401,28.819c-0.368-1.3-2.732-1.53-2.732-1.53c-1.068,0-2.457,0-4.034-0.232c-0.045,0-0.045,0-0.09,0c-4.316-0.649-5.474,2.085-5.521,2.085c0.322,0.838,0.881,1.533,1.343,2.136c0.188,0.185,0.557,0.741,0.836,0.788c0.277,0.095,0.694,0,1.021,0c2.456,0,4.498,0,6.955,0c0.509-0.512,0.975-1.112,1.437-1.763C25.895,29.884,26.218,29.372,26.401,28.819z M23.53,29.561c-0.604-0.371-1.208-0.881-2.134-0.742c-0.974,0.139-1.577,0.789-1.577,0.789s-0.972-0.928-2.086-0.88c-1.113,0.091-1.763,0.692-1.763,0.692c0.323-0.463,0.833-1.53,2.134-1.53c0.278,0,1.808,0.512,1.808,0.512s1.3-0.463,1.856-0.512C22.368,27.795,23.019,28.728,23.53,29.561z M20.792,30.997l-1.899-0.415l-0.465-0.42c0,0,2.179,0.325,2.646,0.276C21.486,30.35,20.792,30.997,20.792,30.997z M27.609,16.25c-0.511,0.741-0.697,0.927-0.697,0.927l-2.456,0.652l-1.577-0.652C22.879,17.177,26.637,15.879,27.609,16.25z"></path></svg>